<mxfile host="app.diagrams.net" modified="2023-07-24T14:54:55.264Z" agent="Mozilla/5.0 (X11; Linux x86_64; rv:109.0) Gecko/20100101 Firefox/114.0" etag="slu8XusRYMvLLdsNqLEK" version="21.6.5" type="device">
  <diagram name="Pagina-1" id="obui6TVBGDl4LSOZlGwR">
    <mxGraphModel dx="1360" dy="806" grid="1" gridSize="10" guides="1" tooltips="1" connect="1" arrows="1" fold="1" page="1" pageScale="1" pageWidth="827" pageHeight="1169" math="0" shadow="0">
      <root>
        <mxCell id="0" />
        <mxCell id="1" parent="0" />
        <mxCell id="LEK0oS1W8AaQiJXYNPTV-44" value="" style="rounded=0;whiteSpace=wrap;html=1;fillColor=#dae8fc;strokeColor=#6c8ebf;" vertex="1" parent="1">
          <mxGeometry x="280" width="280" height="1550" as="geometry" />
        </mxCell>
        <mxCell id="LEK0oS1W8AaQiJXYNPTV-43" value="" style="rounded=0;whiteSpace=wrap;html=1;fillColor=#fff2cc;strokeColor=#d6b656;" vertex="1" parent="1">
          <mxGeometry width="280" height="1550" as="geometry" />
        </mxCell>
        <mxCell id="LEK0oS1W8AaQiJXYNPTV-3" style="rounded=0;orthogonalLoop=1;jettySize=auto;html=1;entryX=0.5;entryY=0;entryDx=0;entryDy=0;" edge="1" parent="1" source="LEK0oS1W8AaQiJXYNPTV-1" target="LEK0oS1W8AaQiJXYNPTV-2">
          <mxGeometry relative="1" as="geometry" />
        </mxCell>
        <mxCell id="LEK0oS1W8AaQiJXYNPTV-1" value="" style="ellipse;whiteSpace=wrap;html=1;aspect=fixed;fillColor=#000000;" vertex="1" parent="1">
          <mxGeometry x="10" y="40" width="30" height="30" as="geometry" />
        </mxCell>
        <mxCell id="LEK0oS1W8AaQiJXYNPTV-5" value="" style="edgeStyle=orthogonalEdgeStyle;rounded=0;orthogonalLoop=1;jettySize=auto;html=1;" edge="1" parent="1" source="LEK0oS1W8AaQiJXYNPTV-2" target="LEK0oS1W8AaQiJXYNPTV-4">
          <mxGeometry relative="1" as="geometry" />
        </mxCell>
        <mxCell id="LEK0oS1W8AaQiJXYNPTV-2" value="Caricamento pagina" style="rounded=1;whiteSpace=wrap;html=1;" vertex="1" parent="1">
          <mxGeometry x="50" y="90" width="120" height="40" as="geometry" />
        </mxCell>
        <mxCell id="LEK0oS1W8AaQiJXYNPTV-7" value="" style="edgeStyle=orthogonalEdgeStyle;rounded=0;orthogonalLoop=1;jettySize=auto;html=1;" edge="1" parent="1" source="LEK0oS1W8AaQiJXYNPTV-4" target="LEK0oS1W8AaQiJXYNPTV-6">
          <mxGeometry relative="1" as="geometry" />
        </mxCell>
        <mxCell id="LEK0oS1W8AaQiJXYNPTV-4" value="Caricamento libreria mappa" style="whiteSpace=wrap;html=1;rounded=1;" vertex="1" parent="1">
          <mxGeometry x="50" y="150" width="120" height="60" as="geometry" />
        </mxCell>
        <mxCell id="LEK0oS1W8AaQiJXYNPTV-11" value="" style="edgeStyle=orthogonalEdgeStyle;rounded=0;orthogonalLoop=1;jettySize=auto;html=1;" edge="1" parent="1" source="LEK0oS1W8AaQiJXYNPTV-6" target="LEK0oS1W8AaQiJXYNPTV-10">
          <mxGeometry relative="1" as="geometry" />
        </mxCell>
        <mxCell id="LEK0oS1W8AaQiJXYNPTV-6" value="Creazione mappa" style="whiteSpace=wrap;html=1;rounded=1;" vertex="1" parent="1">
          <mxGeometry x="50" y="240" width="120" height="40" as="geometry" />
        </mxCell>
        <mxCell id="LEK0oS1W8AaQiJXYNPTV-16" style="edgeStyle=orthogonalEdgeStyle;rounded=0;orthogonalLoop=1;jettySize=auto;html=1;exitX=0.5;exitY=1;exitDx=0;exitDy=0;" edge="1" parent="1" source="LEK0oS1W8AaQiJXYNPTV-10">
          <mxGeometry relative="1" as="geometry">
            <mxPoint x="110" y="400" as="targetPoint" />
          </mxGeometry>
        </mxCell>
        <mxCell id="LEK0oS1W8AaQiJXYNPTV-10" value="Richiesta lista utenti" style="whiteSpace=wrap;html=1;rounded=1;" vertex="1" parent="1">
          <mxGeometry x="50" y="310" width="120" height="40" as="geometry" />
        </mxCell>
        <mxCell id="LEK0oS1W8AaQiJXYNPTV-12" value="" style="endArrow=none;html=1;rounded=0;strokeWidth=6;" edge="1" parent="1">
          <mxGeometry width="50" height="50" relative="1" as="geometry">
            <mxPoint x="57.5" y="400" as="sourcePoint" />
            <mxPoint x="162.5" y="400" as="targetPoint" />
          </mxGeometry>
        </mxCell>
        <mxCell id="LEK0oS1W8AaQiJXYNPTV-15" value="" style="edgeStyle=orthogonalEdgeStyle;rounded=0;orthogonalLoop=1;jettySize=auto;html=1;" edge="1" parent="1" source="LEK0oS1W8AaQiJXYNPTV-13" target="LEK0oS1W8AaQiJXYNPTV-14">
          <mxGeometry relative="1" as="geometry" />
        </mxCell>
        <mxCell id="LEK0oS1W8AaQiJXYNPTV-13" value="Query al database" style="rounded=1;whiteSpace=wrap;html=1;" vertex="1" parent="1">
          <mxGeometry x="320" y="440" width="120" height="40" as="geometry" />
        </mxCell>
        <mxCell id="LEK0oS1W8AaQiJXYNPTV-19" style="rounded=0;orthogonalLoop=1;jettySize=auto;html=1;exitX=0.5;exitY=1;exitDx=0;exitDy=0;" edge="1" parent="1" source="LEK0oS1W8AaQiJXYNPTV-14">
          <mxGeometry relative="1" as="geometry">
            <mxPoint x="320" y="640" as="targetPoint" />
          </mxGeometry>
        </mxCell>
        <mxCell id="LEK0oS1W8AaQiJXYNPTV-14" value="Formattazione in json della lista" style="whiteSpace=wrap;html=1;rounded=1;" vertex="1" parent="1">
          <mxGeometry x="320" y="505" width="120" height="60" as="geometry" />
        </mxCell>
        <mxCell id="LEK0oS1W8AaQiJXYNPTV-17" value="" style="endArrow=classic;html=1;rounded=0;entryX=0;entryY=0.5;entryDx=0;entryDy=0;" edge="1" parent="1" target="LEK0oS1W8AaQiJXYNPTV-13">
          <mxGeometry width="50" height="50" relative="1" as="geometry">
            <mxPoint x="130" y="400" as="sourcePoint" />
            <mxPoint x="440" y="390" as="targetPoint" />
          </mxGeometry>
        </mxCell>
        <mxCell id="LEK0oS1W8AaQiJXYNPTV-18" value="" style="endArrow=none;html=1;rounded=0;strokeWidth=6;" edge="1" parent="1">
          <mxGeometry width="50" height="50" relative="1" as="geometry">
            <mxPoint x="57.5" y="640" as="sourcePoint" />
            <mxPoint x="430" y="640" as="targetPoint" />
          </mxGeometry>
        </mxCell>
        <mxCell id="LEK0oS1W8AaQiJXYNPTV-20" value="" style="endArrow=classic;html=1;rounded=0;" edge="1" parent="1">
          <mxGeometry width="50" height="50" relative="1" as="geometry">
            <mxPoint x="80" y="400" as="sourcePoint" />
            <mxPoint x="120" y="640" as="targetPoint" />
          </mxGeometry>
        </mxCell>
        <mxCell id="LEK0oS1W8AaQiJXYNPTV-24" style="edgeStyle=orthogonalEdgeStyle;rounded=0;orthogonalLoop=1;jettySize=auto;html=1;exitX=0.5;exitY=1;exitDx=0;exitDy=0;entryX=0.5;entryY=0;entryDx=0;entryDy=0;entryPerimeter=0;" edge="1" parent="1" source="LEK0oS1W8AaQiJXYNPTV-21" target="LEK0oS1W8AaQiJXYNPTV-23">
          <mxGeometry relative="1" as="geometry" />
        </mxCell>
        <mxCell id="LEK0oS1W8AaQiJXYNPTV-21" value="Creazione dei pulsanti della lista" style="rounded=1;whiteSpace=wrap;html=1;" vertex="1" parent="1">
          <mxGeometry x="90" y="680" width="120" height="60" as="geometry" />
        </mxCell>
        <mxCell id="LEK0oS1W8AaQiJXYNPTV-22" value="" style="endArrow=classic;html=1;rounded=0;entryX=0.5;entryY=0;entryDx=0;entryDy=0;" edge="1" parent="1" target="LEK0oS1W8AaQiJXYNPTV-21">
          <mxGeometry width="50" height="50" relative="1" as="geometry">
            <mxPoint x="150" y="640" as="sourcePoint" />
            <mxPoint x="410" y="630" as="targetPoint" />
          </mxGeometry>
        </mxCell>
        <mxCell id="LEK0oS1W8AaQiJXYNPTV-26" style="edgeStyle=orthogonalEdgeStyle;rounded=0;orthogonalLoop=1;jettySize=auto;html=1;exitX=0.5;exitY=1;exitDx=0;exitDy=0;exitPerimeter=0;entryX=0.5;entryY=0;entryDx=0;entryDy=0;" edge="1" parent="1" source="LEK0oS1W8AaQiJXYNPTV-23" target="LEK0oS1W8AaQiJXYNPTV-25">
          <mxGeometry relative="1" as="geometry" />
        </mxCell>
        <mxCell id="LEK0oS1W8AaQiJXYNPTV-23" value="attesa click di un pulsante" style="verticalLabelPosition=bottom;verticalAlign=top;html=1;shape=mxgraph.flowchart.collate;" vertex="1" parent="1">
          <mxGeometry x="100" y="780" width="100" height="100" as="geometry" />
        </mxCell>
        <mxCell id="LEK0oS1W8AaQiJXYNPTV-32" style="edgeStyle=orthogonalEdgeStyle;rounded=0;orthogonalLoop=1;jettySize=auto;html=1;exitX=0.5;exitY=1;exitDx=0;exitDy=0;" edge="1" parent="1" source="LEK0oS1W8AaQiJXYNPTV-25">
          <mxGeometry relative="1" as="geometry">
            <mxPoint x="150" y="1040" as="targetPoint" />
          </mxGeometry>
        </mxCell>
        <mxCell id="LEK0oS1W8AaQiJXYNPTV-25" value="Richiesta lista degli spostamenti" style="rounded=1;whiteSpace=wrap;html=1;" vertex="1" parent="1">
          <mxGeometry x="90" y="930" width="120" height="60" as="geometry" />
        </mxCell>
        <mxCell id="LEK0oS1W8AaQiJXYNPTV-27" value="" style="edgeStyle=orthogonalEdgeStyle;rounded=0;orthogonalLoop=1;jettySize=auto;html=1;" edge="1" parent="1" source="LEK0oS1W8AaQiJXYNPTV-28" target="LEK0oS1W8AaQiJXYNPTV-30">
          <mxGeometry relative="1" as="geometry" />
        </mxCell>
        <mxCell id="LEK0oS1W8AaQiJXYNPTV-28" value="Query al database" style="rounded=1;whiteSpace=wrap;html=1;" vertex="1" parent="1">
          <mxGeometry x="294" y="1060" width="120" height="40" as="geometry" />
        </mxCell>
        <mxCell id="LEK0oS1W8AaQiJXYNPTV-29" style="rounded=0;orthogonalLoop=1;jettySize=auto;html=1;exitX=0.5;exitY=1;exitDx=0;exitDy=0;" edge="1" parent="1" source="LEK0oS1W8AaQiJXYNPTV-30">
          <mxGeometry relative="1" as="geometry">
            <mxPoint x="320" y="1230" as="targetPoint" />
          </mxGeometry>
        </mxCell>
        <mxCell id="LEK0oS1W8AaQiJXYNPTV-30" value="Formattazione in json della lista" style="whiteSpace=wrap;html=1;rounded=1;" vertex="1" parent="1">
          <mxGeometry x="294" y="1125" width="120" height="60" as="geometry" />
        </mxCell>
        <mxCell id="LEK0oS1W8AaQiJXYNPTV-31" value="" style="endArrow=none;html=1;rounded=0;strokeWidth=6;" edge="1" parent="1">
          <mxGeometry width="50" height="50" relative="1" as="geometry">
            <mxPoint x="97.5" y="1040" as="sourcePoint" />
            <mxPoint x="202.5" y="1040" as="targetPoint" />
          </mxGeometry>
        </mxCell>
        <mxCell id="LEK0oS1W8AaQiJXYNPTV-34" value="" style="endArrow=classic;html=1;rounded=0;entryX=0.007;entryY=0.43;entryDx=0;entryDy=0;entryPerimeter=0;" edge="1" parent="1" target="LEK0oS1W8AaQiJXYNPTV-28">
          <mxGeometry width="50" height="50" relative="1" as="geometry">
            <mxPoint x="180" y="1040" as="sourcePoint" />
            <mxPoint x="240" y="970" as="targetPoint" />
          </mxGeometry>
        </mxCell>
        <mxCell id="LEK0oS1W8AaQiJXYNPTV-36" value="" style="endArrow=none;html=1;rounded=0;strokeWidth=6;" edge="1" parent="1">
          <mxGeometry width="50" height="50" relative="1" as="geometry">
            <mxPoint x="80" y="1230" as="sourcePoint" />
            <mxPoint x="406.5" y="1230" as="targetPoint" />
          </mxGeometry>
        </mxCell>
        <mxCell id="LEK0oS1W8AaQiJXYNPTV-38" value="" style="endArrow=classic;html=1;rounded=0;" edge="1" parent="1">
          <mxGeometry width="50" height="50" relative="1" as="geometry">
            <mxPoint x="150" y="1040" as="sourcePoint" />
            <mxPoint x="150" y="1230" as="targetPoint" />
          </mxGeometry>
        </mxCell>
        <mxCell id="LEK0oS1W8AaQiJXYNPTV-42" style="edgeStyle=orthogonalEdgeStyle;rounded=0;orthogonalLoop=1;jettySize=auto;html=1;exitX=0.5;exitY=1;exitDx=0;exitDy=0;entryX=0.5;entryY=0;entryDx=0;entryDy=0;" edge="1" parent="1" source="LEK0oS1W8AaQiJXYNPTV-39" target="LEK0oS1W8AaQiJXYNPTV-41">
          <mxGeometry relative="1" as="geometry" />
        </mxCell>
        <mxCell id="LEK0oS1W8AaQiJXYNPTV-39" value="Impostazione dello zoom in base ai limiti dei punti" style="rounded=1;whiteSpace=wrap;html=1;" vertex="1" parent="1">
          <mxGeometry x="90" y="1320" width="120" height="60" as="geometry" />
        </mxCell>
        <mxCell id="LEK0oS1W8AaQiJXYNPTV-40" value="" style="endArrow=classic;html=1;rounded=0;entryX=0.5;entryY=0;entryDx=0;entryDy=0;" edge="1" parent="1" target="LEK0oS1W8AaQiJXYNPTV-39">
          <mxGeometry width="50" height="50" relative="1" as="geometry">
            <mxPoint x="150" y="1230" as="sourcePoint" />
            <mxPoint x="260" y="1230" as="targetPoint" />
          </mxGeometry>
        </mxCell>
        <mxCell id="LEK0oS1W8AaQiJXYNPTV-41" value="Creazione linee raffiguranti lo spostamento" style="rounded=1;whiteSpace=wrap;html=1;" vertex="1" parent="1">
          <mxGeometry x="90" y="1440" width="120" height="60" as="geometry" />
        </mxCell>
        <mxCell id="LEK0oS1W8AaQiJXYNPTV-45" value="Client javascript/html" style="text;html=1;strokeColor=none;fillColor=none;align=center;verticalAlign=middle;whiteSpace=wrap;rounded=0;fontSize=16;" vertex="1" parent="1">
          <mxGeometry x="75" y="10" width="150" height="30" as="geometry" />
        </mxCell>
        <mxCell id="LEK0oS1W8AaQiJXYNPTV-46" value="Server php/mysql" style="text;html=1;strokeColor=none;fillColor=none;align=center;verticalAlign=middle;whiteSpace=wrap;rounded=0;fontSize=16;" vertex="1" parent="1">
          <mxGeometry x="349" y="10" width="130" height="30" as="geometry" />
        </mxCell>
      </root>
    </mxGraphModel>
  </diagram>
</mxfile>
